<mxfile host="app.diagrams.net" modified="2023-01-04T13:13:32.744Z" agent="5.0 (Windows NT 10.0; Win64; x64) AppleWebKit/537.36 (KHTML, like Gecko) Chrome/108.0.0.0 Safari/537.36 Edg/108.0.1462.54" version="20.6.2" etag="n_zLtnWQmFac4rT7I8iG" type="github">
  <diagram id="AxvfqQBkXuLkjV5kiNy3" name="第 1 页">
    <mxGraphModel dx="992" dy="579" grid="1" gridSize="10" guides="1" tooltips="1" connect="1" arrows="1" fold="1" page="1" pageScale="1" pageWidth="3300" pageHeight="4681" math="0" shadow="0">
      <root>
        <mxCell id="0" />
        <mxCell id="1" parent="0" />
        <mxCell id="3f_2mbdI85duninYhN_O-1" value="" style="shape=mxgraph.cisco.computers_and_peripherals.laptop;sketch=0;html=1;pointerEvents=1;dashed=0;fillColor=#036897;strokeColor=#ffffff;strokeWidth=2;verticalLabelPosition=bottom;verticalAlign=top;align=center;outlineConnect=0;" vertex="1" parent="1">
          <mxGeometry x="780" y="140" width="160" height="120" as="geometry" />
        </mxCell>
        <mxCell id="3f_2mbdI85duninYhN_O-2" value="" style="aspect=fixed;perimeter=ellipsePerimeter;html=1;align=center;shadow=0;dashed=0;spacingTop=3;image;image=img/lib/active_directory/generic_server.svg;" vertex="1" parent="1">
          <mxGeometry x="1300" y="125" width="84" height="150" as="geometry" />
        </mxCell>
        <mxCell id="3f_2mbdI85duninYhN_O-3" value="" style="endArrow=classic;html=1;rounded=0;" edge="1" parent="1">
          <mxGeometry relative="1" as="geometry">
            <mxPoint x="940" y="150" as="sourcePoint" />
            <mxPoint x="1300" y="150" as="targetPoint" />
          </mxGeometry>
        </mxCell>
        <mxCell id="3f_2mbdI85duninYhN_O-4" value="" style="endArrow=classic;html=1;rounded=0;" edge="1" parent="1">
          <mxGeometry relative="1" as="geometry">
            <mxPoint x="1300" y="180" as="sourcePoint" />
            <mxPoint x="940" y="180" as="targetPoint" />
          </mxGeometry>
        </mxCell>
        <mxCell id="3f_2mbdI85duninYhN_O-5" value="" style="endArrow=classic;html=1;rounded=0;" edge="1" parent="1">
          <mxGeometry relative="1" as="geometry">
            <mxPoint x="940" y="210" as="sourcePoint" />
            <mxPoint x="1300" y="210" as="targetPoint" />
          </mxGeometry>
        </mxCell>
        <mxCell id="3f_2mbdI85duninYhN_O-6" value="" style="endArrow=classic;html=1;rounded=0;exitX=-0.029;exitY=0.84;exitDx=0;exitDy=0;exitPerimeter=0;" edge="1" parent="1" source="3f_2mbdI85duninYhN_O-2">
          <mxGeometry relative="1" as="geometry">
            <mxPoint x="1290" y="250" as="sourcePoint" />
            <mxPoint x="940" y="250" as="targetPoint" />
          </mxGeometry>
        </mxCell>
        <mxCell id="3f_2mbdI85duninYhN_O-7" value="request(itemId=123)" style="text;html=1;align=center;verticalAlign=middle;resizable=0;points=[];autosize=1;strokeColor=none;fillColor=none;" vertex="1" parent="1">
          <mxGeometry x="1030" y="120" width="130" height="30" as="geometry" />
        </mxCell>
        <mxCell id="3f_2mbdI85duninYhN_O-8" value="request+cookie cart:123" style="text;html=1;align=center;verticalAlign=middle;resizable=0;points=[];autosize=1;strokeColor=none;fillColor=none;" vertex="1" parent="1">
          <mxGeometry x="1030" y="150" width="150" height="30" as="geometry" />
        </mxCell>
        <mxCell id="3f_2mbdI85duninYhN_O-9" value="&lt;span style=&quot;color: rgb(0, 0, 0); font-family: Helvetica; font-size: 12px; font-style: normal; font-variant-ligatures: normal; font-variant-caps: normal; font-weight: 400; letter-spacing: normal; orphans: 2; text-align: center; text-indent: 0px; text-transform: none; widows: 2; word-spacing: 0px; -webkit-text-stroke-width: 0px; background-color: rgb(248, 249, 250); text-decoration-thickness: initial; text-decoration-style: initial; text-decoration-color: initial; float: none; display: inline !important;&quot;&gt;request(itemId=456)+&lt;/span&gt;&lt;span style=&quot;text-align: center;&quot;&gt;cookie cart:123&lt;/span&gt;" style="text;whiteSpace=wrap;html=1;" vertex="1" parent="1">
          <mxGeometry x="1030" y="180" width="230" height="40" as="geometry" />
        </mxCell>
        <mxCell id="3f_2mbdI85duninYhN_O-10" value="&lt;span style=&quot;color: rgb(0, 0, 0); font-family: Helvetica; font-size: 12px; font-style: normal; font-variant-ligatures: normal; font-variant-caps: normal; font-weight: 400; letter-spacing: normal; orphans: 2; text-align: center; text-indent: 0px; text-transform: none; widows: 2; word-spacing: 0px; -webkit-text-stroke-width: 0px; background-color: rgb(248, 249, 250); text-decoration-thickness: initial; text-decoration-style: initial; text-decoration-color: initial; float: none; display: inline !important;&quot;&gt;response+&lt;/span&gt;&lt;span style=&quot;text-align: center;&quot;&gt;cookie cart:123,456&lt;/span&gt;" style="text;whiteSpace=wrap;html=1;" vertex="1" parent="1">
          <mxGeometry x="1040" y="220" width="230" height="40" as="geometry" />
        </mxCell>
      </root>
    </mxGraphModel>
  </diagram>
</mxfile>
